<svg width="48" height="49" viewBox="0 0 48 49" fill="none" xmlns="http://www.w3.org/2000/svg">
<path fill-rule="evenodd" clip-rule="evenodd" d="M31.6094 44.5811C24.4569 47.2306 16.9015 46.6799 10.5137 43.6517L10.042 45.1646C9.93884 45.4953 9.52859 45.6043 9.275 45.3681C6.84331 43.1028 3.76915 38.7659 3.51668 34.8996C3.49371 34.5483 3.84875 34.2988 4.17162 34.4394C6.35243 35.3889 9.38993 35.7974 12.3181 35.8468C12.6325 35.852 12.8512 36.1548 12.7577 36.4549L12.1452 38.419C18.9002 41.7996 27.4783 41.9821 34.75 39.2884C38.1394 38.0329 41.1552 36.2555 43.7108 34.114C44.1278 33.7645 44.7082 34.2979 44.3953 34.7429C41.3367 39.0936 36.9736 42.5941 31.6094 44.5811ZM25.6208 19.213V34.985L38.9945 27.1148V11.3427L35.2143 13.5673L35.2115 20.0353C35.2112 20.2915 35.0792 20.5409 34.8422 20.6798L30.5289 23.2181C30.0386 23.5061 29.4039 23.156 29.4039 22.5736V16.9866L25.6208 19.213ZM21.0638 4.38878L24.8708 2.14844L38.2713 10.0345L34.4643 12.2748L21.0638 4.38878ZM16.7504 6.92716L19.5907 5.25569L32.9912 13.1418L30.151 14.8132L16.7504 6.92716ZM24.8708 17.9206L11.4702 10.0345L15.2772 7.79416L28.6779 15.6802L24.8708 17.9206ZM30.8981 16.1073L33.7144 14.45V19.6098L30.8982 21.2671L30.8981 16.1073ZM24.1208 19.213L10.7471 11.3427V27.1148L24.1208 34.985V19.213Z" fill="#FF4B37"/>
</svg>
