<svg width="48" height="49" viewBox="0 0 48 49" fill="none" xmlns="http://www.w3.org/2000/svg">
<path fill-rule="evenodd" clip-rule="evenodd" d="M7.65165 23.0261C7.80746 25.0284 8.32656 27.0076 9.20847 28.8571L6.15672 30.6191C4.97303 28.2224 4.29728 25.638 4.12975 23.0262H7.65165V23.0261ZM25.091 9.0905C27.6734 9.0905 29.7668 11.1839 29.7668 13.7663C29.7668 16.3486 27.6734 18.4421 25.091 18.4421C22.5087 18.4421 20.4152 16.3486 20.4152 13.7663C20.4152 11.1839 22.5087 9.0905 25.091 9.0905ZM16.889 27.6323H33.293C33.8359 27.6323 34.2349 27.1347 34.1166 26.6048C33.1941 22.4702 29.5036 19.3796 25.091 19.3796C20.6784 19.3796 16.9879 22.4702 16.0654 26.6049C15.9471 27.1347 16.346 27.6323 16.889 27.6323ZM23.727 36.0595C24.5269 36.1572 25.184 35.9164 25.4067 35.0855C25.6068 34.3383 25.1346 33.6374 24.4308 33.3911C22.1594 32.9745 19.9587 32.179 18.228 31.5532C15.7445 30.6553 15.0962 30.4442 12.6465 31.8626L8.24022 34.4137L11.8993 40.8791L12.1885 40.7121C12.3666 40.6097 12.5693 40.589 12.7533 40.6381L22.6884 43.2979C24.1305 43.6842 25.0052 43.5293 26.2224 42.7798L39.866 34.3785C40.2911 34.1169 40.5 33.5093 40.4384 32.9152C40.3879 32.429 40.1519 31.9894 39.7046 31.7628C38.9949 31.4034 37.7623 31.5107 35.8558 32.6211L28.3084 37.017C27.7022 37.3701 27.0782 37.5945 26.4305 37.7033C24.5593 38.0175 21.7409 37.1354 20.065 36.6568C19.5264 36.5031 18.9797 36.3469 18.4457 36.2038C18.0461 36.0971 17.8087 35.6865 17.9155 35.2869C18.0223 34.8872 18.4329 34.6498 18.8325 34.7566C20.4613 35.1929 22.0762 35.7177 23.727 36.0595ZM5.96743 33.4432L11.9321 43.9824C12.2205 44.492 12.0395 45.1449 11.5299 45.4332L9.50106 46.5815C8.99143 46.8699 8.33856 46.6889 8.05018 46.1793L2.08553 35.6401C1.79715 35.1305 1.97809 34.4776 2.48772 34.1892L4.51656 33.041C5.02609 32.7526 5.67906 32.9336 5.96743 33.4432ZM4.59972 35.023C4.2039 35.0808 3.92987 35.4486 3.98781 35.8445C4.04565 36.2404 4.41353 36.5143 4.80934 36.4565C5.20515 36.3987 5.47918 36.0308 5.42125 35.635C5.36331 35.2391 4.99553 34.965 4.59972 35.023ZM4.12975 20.4372C4.30384 17.7269 5.01643 15.1614 6.16215 12.8474L9.23218 14.6199C8.38797 16.4036 7.84506 18.3653 7.66543 20.4372H4.12975ZM7.45815 10.6063C8.92562 8.40959 10.8152 6.51781 13.0123 5.04866L14.7666 8.08719C13.0995 9.23919 11.6601 10.6933 10.5177 12.3727L7.45815 10.6063ZM15.2532 3.75209C17.5651 2.60656 20.13 1.89266 22.8445 1.71922V5.24C20.7557 5.39881 18.7893 5.93891 17.0069 6.7895L15.2532 3.75209ZM25.4333 1.71875V5.24056C33.9656 5.89878 40.6841 13.0305 40.6841 21.7317C40.6841 22.4282 40.6408 23.1147 40.5571 23.7885H39.4009C39.0627 23.7885 38.874 24.1773 39.0832 24.4431L42.2062 28.4098C42.3681 28.6153 42.6798 28.6153 42.8417 28.4098L45.9647 24.4431C46.1739 24.1773 45.9852 23.7886 45.6469 23.7885H44.0943C44.1632 23.1123 44.1987 22.4262 44.1987 21.7317C44.1986 11.089 35.9082 2.384 25.4333 1.71875Z" fill="#FF4B37"/>
</svg>
