<?xml version="1.0" encoding="iso-8859-1"?>
<!-- Uploaded to: SVG Repo, www.svgrepo.com, Generator: SVG Repo Mixer Tools -->
<svg fill="#000000" height="800px" width="800px" version="1.1" id="Layer_1" xmlns="http://www.w3.org/2000/svg" xmlns:xlink="http://www.w3.org/1999/xlink" 
	 viewBox="0 0 512.001 512.001" xml:space="preserve">
<g>
	<g>
		<path d="M512.001,386.615L512.001,386.615H119.165c-7.726,0-14.011-6.285-14.011-14.011c0-7.726,6.285-14.011,14.011-14.011
			h16.884h12.139h307.741l52.394-230.518H114.847l-18.24-80.248H0v30.417h72.328l56.807,249.931h-9.971
			c-24.497,0-44.427,19.93-44.427,44.427s19.93,44.427,44.427,44.427h10.882c-0.595,2.696-0.919,5.492-0.919,8.364
			c0,21.383,17.396,38.779,38.78,38.779c21.384,0,38.78-17.396,38.78-38.779c0-2.872-0.323-5.668-0.919-8.364h171.314
			c-0.595,2.696-0.919,5.492-0.919,8.364c0,21.383,17.396,38.779,38.78,38.779c21.383,0,38.78-17.396,38.78-38.779
			c0-2.872-0.323-5.668-0.919-8.364h59.195V386.615z M280.78,328.176h-45.114l-4.123-36.284h49.237V328.176z M280.781,261.475
			h-52.695l-4.123-36.284h56.818V261.475z M406.208,158.491h64.01l-8.247,36.284h-59.886L406.208,158.491z M398.628,225.192h56.43
			l-8.247,36.284h-52.306L398.628,225.192z M391.047,291.892h48.85l-8.247,36.284h-44.726L391.047,291.892z M311.197,158.491h64.398
			l-4.123,36.284h-60.274V158.491z M311.197,225.192h56.818l-4.123,36.284h-52.695V225.192z M311.197,291.892h49.238l-4.123,36.284
			h-45.115V291.892z M280.781,158.491v36.284h-60.274l-4.123-36.284H280.781z M205.054,328.176h-44.726l-1.615-7.103l-6.632-29.181
			h48.85L205.054,328.176z M197.474,261.475h-52.306l-8.247-36.284h56.43L197.474,261.475z M121.76,158.491h64.01l4.123,36.284
			h-59.886L121.76,158.491z M167.907,433.758c-4.611,0-8.364-3.751-8.364-8.362c0-4.612,3.751-8.364,8.364-8.364
			c4.612,0,8.364,3.751,8.364,8.364C176.271,430.006,172.518,433.758,167.907,433.758z M414.944,433.758
			c-4.612,0-8.364-3.751-8.364-8.362c0-4.612,3.752-8.364,8.364-8.364s8.364,3.751,8.364,8.364
			C423.307,430.006,419.556,433.758,414.944,433.758z"/>
	</g>
</g>
</svg>