<svg width="48" height="49" viewBox="0 0 48 49" fill="none" xmlns="http://www.w3.org/2000/svg">
<path fill-rule="evenodd" clip-rule="evenodd" d="M16.0161 30.0474C16.0228 38.0863 16.024 42.8229 16.0194 44.2569C16.0185 44.5145 15.8083 44.724 15.5507 44.724H10.6464C10.3883 44.724 10.1777 44.5134 10.1777 44.2552V30.0477C10.1777 29.7895 10.3883 29.5789 10.6464 29.5789H15.5472C15.8054 29.5789 16.0159 29.7893 16.0161 30.0474ZM32.7946 42.7124H29.2576C29.2576 42.7187 29.1921 42.7145 29.1828 42.7143C28.4258 42.7544 27.8136 43.3974 27.8136 44.1565C27.8136 44.9525 28.4794 45.6002 29.2573 45.6002L29.2574 45.5973H32.7944C33.5833 45.5973 34.2384 44.946 34.2384 44.1566H34.2355C34.2355 43.3654 33.5858 42.7154 32.7945 42.7154V42.7124H32.7946ZM34.1014 38.3331H29.2575C28.4685 38.3331 27.8135 38.9846 27.8134 39.7741C27.8135 40.5635 28.4684 41.2152 29.2575 41.2152C29.2575 41.2214 34.1014 41.2076 34.1014 41.2181C34.8908 41.218 35.5424 40.5631 35.5424 39.774C35.5424 38.9831 34.8924 38.3331 34.1014 38.3331ZM28.3345 33.9511C27.5434 33.9511 26.8934 34.601 26.8934 35.3922C26.8934 36.1833 27.5435 36.8331 28.3345 36.8331H35.6389C36.4279 36.8331 37.0829 36.1816 37.0829 35.3922C37.0828 34.6027 36.4279 33.9511 35.6389 33.9511H28.3345ZM29.2576 32.4511H34.7159C35.5071 32.4511 36.1569 31.8011 36.1569 31.01C36.1569 30.219 35.507 29.5691 34.7159 29.5691H29.2574C28.4685 29.5691 27.8135 30.2206 27.8135 31.0099H27.8164C27.8165 31.8011 28.4663 32.4511 29.2576 32.4511ZM25.5042 29.7182L25.5038 29.7184C26.6238 31.3537 26.379 32.7191 25.7018 33.761C24.9624 34.8989 23.7298 35.71 23.0514 36.0995C22.6939 36.305 22.5706 36.7615 22.776 37.1191C22.9815 37.4766 23.438 37.5999 23.7955 37.3945C24.2334 37.1431 24.8697 36.7392 25.505 36.1942C25.7215 36.9546 26.2405 37.5986 26.9333 37.9763C26.5489 38.4728 26.3194 39.0969 26.3193 39.7742C26.3194 40.5857 26.6489 41.321 27.1798 41.8519C27.3232 41.9953 27.3231 41.9353 27.1797 42.0786C26.1933 43.0651 26.0402 44.6327 26.8146 45.7894C22.6591 46.4993 19.9473 46.811 17.4031 44.9227C17.4776 44.7162 17.5186 44.4937 17.5193 44.2618C17.5347 39.5239 17.5199 34.7841 17.516 30.0462C17.5158 29.8484 17.4863 29.6572 17.4317 29.477C17.5254 29.4108 17.6201 29.3441 17.7149 29.2772C20.2605 27.4827 22.8866 25.6314 22.8866 22.0067V18.2186C25.1836 18.5861 26.9012 20.5896 26.9012 22.9228V26.4475C26.7623 27.2846 26.1832 28.1772 25.5917 28.7692C25.3343 29.0279 25.3055 29.4277 25.5042 29.7182ZM33.6718 12.5052L32.2523 16.2439C32.2097 16.3563 32.1104 16.4285 31.9903 16.4343L27.9959 16.6291C27.7242 16.6423 27.613 16.9845 27.825 17.1549L30.9421 19.6603C31.0358 19.7356 31.0737 19.8524 31.0422 19.9683L29.9931 23.8274C29.9217 24.0898 30.2128 24.3014 30.4403 24.1524L33.7864 21.962C33.887 21.8962 34.0097 21.8962 34.1103 21.962L37.4562 24.1524C37.6838 24.3014 37.9748 24.0899 37.9035 23.8275L36.8544 19.9683C36.8229 19.8524 36.8607 19.7356 36.9545 19.6603L40.0716 17.1549C40.2835 16.9845 40.1723 16.6423 39.9007 16.6291L35.9063 16.4343C35.7862 16.4285 35.6869 16.3563 35.6442 16.2439L34.2248 12.5052C34.1288 12.2523 33.7677 12.2523 33.6718 12.5052ZM23.4578 2.29113C23.5538 2.03837 23.9147 2.03837 24.0107 2.29113L25.4302 6.02988C25.4728 6.14228 25.5721 6.21447 25.6923 6.22028L29.6867 6.415C29.9584 6.42822 30.0696 6.7705 29.8576 6.94084L26.7405 9.44622C26.6468 9.5215 26.6089 9.63831 26.6404 9.75428L27.6895 13.6133C27.7609 13.8758 27.4698 14.0872 27.2423 13.9382L23.8963 11.748C23.7957 11.6822 23.673 11.6822 23.5724 11.748L20.2264 13.9382C19.9988 14.0872 19.7078 13.8757 19.7791 13.6132L20.8283 9.75419C20.8598 9.63822 20.8219 9.52141 20.7281 9.44612L17.611 6.94075C17.3991 6.77031 17.5103 6.42812 17.7818 6.41491L21.7763 6.22019C21.8963 6.21438 21.9956 6.14219 22.0384 6.02978L23.4578 2.29113ZM14.328 12.5052C14.232 12.2523 13.8711 12.2523 13.7751 12.5052L12.3556 16.2439C12.3129 16.3563 12.2137 16.4285 12.0936 16.4343L8.09916 16.6291C7.82747 16.6423 7.71629 16.9845 7.92826 17.1549L11.0453 19.6603C11.139 19.7356 11.177 19.8524 11.1454 19.9683L10.0962 23.8275C10.0249 24.0899 10.316 24.3014 10.5435 24.1524L13.8894 21.962C13.99 21.8962 14.1128 21.8962 14.2133 21.962L17.5594 24.1524C17.787 24.3014 18.078 24.0899 18.0067 23.8274L16.9575 19.9683C16.9259 19.8524 16.9639 19.7356 17.0575 19.6603L20.1746 17.1549C20.3866 16.9845 20.2754 16.6423 20.0037 16.6291L16.0093 16.4343C15.8892 16.4285 15.7899 16.3563 15.7473 16.2439L14.328 12.5052Z" fill="#FF4B37"/>
</svg>
