<svg width="1920" height="499" viewBox="0 0 1920 499" fill="none" xmlns="http://www.w3.org/2000/svg">
<g opacity="0.12" clip-path="url(#clip0_0_28)">
<path d="M777.746 744.453C937.163 700.454 1029.81 725.363 1189.23 681.364C1348.65 637.365 1256 612.456 1415.37 568.47C1574.74 524.484 1667.43 549.38 1826.85 505.381C1986.27 461.382 1893.62 436.473 2053.03 392.475C2212.45 348.476 2305.1 373.384 2464.56 329.372C2624.03 285.361 2531.33 260.465 2690.75 216.466" stroke="#4a9eff" stroke-miterlimit="10"/>
<path d="M-1034.51 249.125C-875.097 205.126 -782.446 230.034 -623.029 186.035C-463.613 142.036 -556.264 117.128 -396.893 73.142C-237.522 29.1557 -144.825 54.0513 14.5914 10.0524C174.008 -33.9465 81.3568 -58.8547 240.773 -102.854C400.19 -146.853 492.841 -121.944 652.304 -165.956C811.766 -209.967 719.069 -234.863 878.486 -278.862" stroke="#4a9eff" stroke-miterlimit="10"/>
<path d="M123.451 559.445C282.868 515.446 375.519 540.355 534.936 496.356C694.352 452.357 601.701 427.449 761.072 383.462C920.443 339.476 1013.14 364.372 1172.56 320.373C1331.97 276.374 1239.32 251.466 1398.74 207.467C1558.15 163.468 1650.81 188.376 1810.27 144.364C1969.73 100.353 1877.03 75.4572 2036.45 31.4583" stroke="#4a9eff" stroke-miterlimit="10"/>
<path d="M-464.245 401.656C-304.828 357.657 -212.177 382.566 -52.7607 338.567C106.656 294.568 14.0048 269.659 173.376 225.673C332.746 181.687 425.443 206.583 584.86 162.584C744.277 118.585 651.625 93.6765 811.042 49.6776C970.459 5.67868 1063.11 30.5869 1222.57 -13.4247C1382.03 -57.4362 1289.34 -82.3318 1448.75 -126.331" stroke="#4a9eff" stroke-miterlimit="10"/>
<path d="M691.416 716.633C850.833 672.634 943.484 697.542 1102.9 653.543C1262.32 609.544 1169.67 584.636 1329.04 540.65C1488.41 496.664 1581.1 521.559 1740.52 477.56C1899.94 433.561 1807.29 408.653 1966.7 364.654C2126.12 320.655 2218.77 345.564 2378.23 301.552C2537.7 257.54 2445 232.645 2604.42 188.646" stroke="#4a9eff" stroke-miterlimit="10"/>
<path d="M-754.281 330.352C-594.865 286.353 -502.214 311.261 -342.797 267.262C-183.38 223.263 -276.031 198.355 -116.661 154.369C42.7102 110.382 135.407 135.278 294.824 91.279C454.24 47.2801 361.589 22.3718 521.006 -21.6271C680.422 -65.626 773.074 -40.7178 932.536 -84.7294C1092 -128.741 999.302 -153.637 1158.72 -197.635" stroke="#4a9eff" stroke-miterlimit="10"/>
<path d="M401.381 640.156C560.797 596.157 653.449 621.066 812.865 577.067C972.282 533.068 879.631 508.159 1039 464.173C1198.37 420.187 1291.07 445.083 1450.49 401.084C1609.9 357.085 1517.25 332.177 1676.67 288.178C1836.08 244.179 1928.74 269.087 2088.2 225.075C2247.66 181.064 2154.96 156.168 2314.38 112.169" stroke="#4a9eff" stroke-miterlimit="10"/>
<path d="M-184.014 482.891C-24.597 438.892 68.0541 463.8 227.471 419.801C386.887 375.802 294.236 350.894 453.607 306.908C612.978 262.921 705.675 287.817 865.091 243.818C1024.51 199.819 931.857 174.911 1091.27 130.912C1250.69 86.9131 1343.34 111.821 1502.8 67.8097C1662.27 23.7981 1569.57 -1.09746 1728.99 -45.0964" stroke="#4a9eff" stroke-miterlimit="10"/>
<path d="M971.648 797.867C1131.07 753.868 1223.72 778.777 1383.13 734.778C1542.55 690.779 1449.9 665.87 1609.27 621.884C1768.64 577.898 1861.34 602.794 2020.75 558.795C2180.17 514.796 2087.52 489.888 2246.94 445.889C2406.35 401.89 2499 426.798 2658.47 382.786C2817.93 338.775 2725.23 313.879 2884.65 269.88" stroke="#4a9eff" stroke-miterlimit="10"/>
<path d="M-1073.25 234.742C-913.833 190.743 -821.182 215.652 -661.766 171.653C-502.349 127.654 -595 102.745 -435.629 58.7592C-276.259 14.7729 -183.562 39.6685 -24.145 -4.33041C135.272 -48.3293 42.6205 -73.2376 202.037 -117.236C361.454 -161.235 454.105 -136.327 613.567 -180.339C773.03 -224.35 680.333 -249.246 839.75 -293.245" stroke="#4a9eff" stroke-miterlimit="10"/>
<path d="M84.7168 545.062C244.133 501.064 336.785 525.972 496.201 481.973C655.618 437.974 562.967 413.066 722.337 369.079C881.708 325.093 974.405 349.989 1133.82 305.99C1293.24 261.991 1200.59 237.083 1360 193.084C1519.42 149.085 1612.07 173.993 1771.53 129.982C1931 85.97 1838.3 61.0744 1997.72 17.0755" stroke="#4a9eff" stroke-miterlimit="10"/>
<path d="M-502.981 387.273C-343.565 343.275 -250.914 368.183 -91.4971 324.184C67.9196 280.185 -24.7315 255.277 134.639 211.29C294.01 167.304 386.707 192.2 546.124 148.201C705.54 104.202 612.889 79.2937 772.306 35.2948C931.722 -8.70414 1024.37 16.2041 1183.84 -27.8075C1343.3 -71.8191 1250.6 -96.7146 1410.02 -140.714" stroke="#4a9eff" stroke-miterlimit="10"/>
<path d="M652.682 702.25C812.098 658.251 904.749 683.159 1064.17 639.16C1223.58 595.162 1130.93 570.253 1290.3 526.267C1449.67 482.281 1542.37 507.176 1701.79 463.177C1861.2 419.179 1768.55 394.27 1927.97 350.271C2087.39 306.272 2180.04 331.181 2339.5 287.169C2498.96 243.158 2406.26 218.262 2565.68 174.263" stroke="#4a9eff" stroke-miterlimit="10"/>
<path d="M-793.017 315.969C-633.6 271.97 -540.949 296.878 -381.532 252.879C-222.116 208.88 -314.767 183.972 -155.396 139.986C3.97482 95.9995 96.6718 120.895 256.088 76.8962C415.505 32.8972 322.854 7.98901 482.27 -36.0099C641.687 -80.0088 734.338 -55.1006 893.801 -99.1122C1053.26 -143.124 960.566 -168.019 1119.98 -212.018" stroke="#4a9eff" stroke-miterlimit="10"/>
<path d="M362.645 625.773C522.061 581.775 614.712 606.683 774.129 562.684C933.546 518.685 840.894 493.777 1000.27 449.79C1159.64 405.804 1252.33 430.7 1411.75 386.701C1571.17 342.702 1478.52 317.794 1637.93 273.795C1797.35 229.796 1890 254.704 2049.46 210.693C2208.92 166.681 2116.23 141.785 2275.64 97.7864" stroke="#4a9eff" stroke-miterlimit="10"/>
<path d="M-222.749 468.508C-63.3324 424.509 29.3187 449.417 188.735 405.418C348.152 361.419 255.501 336.511 414.872 292.525C574.242 248.539 666.939 273.434 826.356 229.435C985.773 185.436 893.121 160.528 1052.54 116.529C1211.95 72.5302 1304.61 97.4385 1464.07 53.4269C1623.53 9.41532 1530.83 -15.4803 1690.25 -59.4792" stroke="#4a9eff" stroke-miterlimit="10"/>
<path d="M932.914 783.484C1092.33 739.486 1184.98 764.394 1344.4 720.395C1503.82 676.396 1411.16 651.488 1570.53 607.501C1729.91 563.515 1822.6 588.411 1982.02 544.412C2141.44 500.413 2048.78 475.505 2208.2 431.506C2367.62 387.507 2460.27 412.415 2619.73 368.404C2779.19 324.392 2686.5 299.496 2845.91 255.497" stroke="#4a9eff" stroke-miterlimit="10"/>
<path d="M-1182.09 208.164C-1022.67 164.165 -930.023 189.073 -770.606 145.074C-611.19 101.076 -703.841 76.1673 -544.47 32.1811C-385.099 -11.8052 -292.402 13.0904 -132.986 -30.9085C26.4308 -74.9074 -66.2204 -99.8157 93.1963 -143.815C252.613 -187.814 345.264 -162.905 504.727 -206.917C664.189 -250.928 571.492 -275.824 730.909 -319.823" stroke="#4a9eff" stroke-miterlimit="10"/>
<path d="M-24.124 518.492C135.293 474.493 227.944 499.402 387.36 455.403C546.777 411.404 454.126 386.495 613.497 342.509C772.867 298.523 865.564 323.419 1024.98 279.42C1184.4 235.421 1091.75 210.512 1251.16 166.514C1410.58 122.515 1503.23 147.423 1662.69 103.411C1822.16 59.3997 1729.46 34.5041 1888.88 -9.49481" stroke="#4a9eff" stroke-miterlimit="10"/>
<path d="M-611.822 365.883C-452.406 321.884 -359.755 346.792 -200.338 302.793C-40.9213 258.794 -133.572 233.886 25.7984 189.9C185.169 145.914 277.866 170.809 437.283 126.81C596.699 82.8113 504.048 57.9031 663.465 13.9042C822.881 -30.0948 915.533 -5.18653 1075 -49.1981C1234.46 -93.2097 1141.76 -118.105 1301.18 -162.104" stroke="#4a9eff" stroke-miterlimit="10"/>
<path d="M543.84 675.68C703.256 631.681 795.908 656.589 955.324 612.59C1114.74 568.591 1022.09 543.683 1181.46 499.697C1340.83 455.71 1433.53 480.606 1592.94 436.607C1752.36 392.608 1659.71 367.7 1819.13 323.701C1978.54 279.702 2071.19 304.61 2230.66 260.599C2390.12 216.587 2297.42 191.692 2456.84 147.693" stroke="#4a9eff" stroke-miterlimit="10"/>
<path d="M-901.858 289.398C-742.442 245.4 -649.791 270.308 -490.374 226.309C-330.957 182.31 -423.608 157.402 -264.238 113.415C-104.867 69.4292 -12.17 94.3248 147.247 50.3258C306.663 6.32693 214.012 -18.5813 373.429 -62.5802C532.845 -106.579 625.496 -81.6709 784.959 -125.682C944.421 -169.694 851.724 -194.59 1011.14 -238.589" stroke="#4a9eff" stroke-miterlimit="10"/>
<path d="M256.108 599.719C415.525 555.72 508.176 580.628 667.593 536.629C827.009 492.63 734.358 467.722 893.729 423.736C1053.1 379.749 1145.8 404.645 1305.21 360.646C1464.63 316.647 1371.98 291.739 1531.4 247.74C1690.81 203.741 1783.46 228.649 1942.93 184.638C2102.39 140.626 2009.69 115.731 2169.11 71.7318" stroke="#4a9eff" stroke-miterlimit="10"/>
<path d="M-331.59 441.93C-172.173 397.931 -79.5221 422.839 79.8945 378.84C239.311 334.841 146.66 309.933 306.031 265.947C465.402 221.96 558.099 246.856 717.515 202.857C876.932 158.858 784.281 133.95 943.697 89.951C1103.11 45.9521 1195.77 70.8603 1355.23 26.8488C1514.69 -17.1628 1421.99 -42.0584 1581.41 -86.0573" stroke="#4a9eff" stroke-miterlimit="10"/>
<path d="M824.072 756.906C983.489 712.907 1076.14 737.816 1235.56 693.817C1394.97 649.818 1302.32 624.91 1461.69 580.923C1621.06 536.937 1713.76 561.833 1873.18 517.834C2032.59 473.835 1939.94 448.927 2099.36 404.928C2258.78 360.929 2351.43 385.837 2510.89 341.825C2670.35 297.814 2577.66 272.918 2737.07 228.919" stroke="#4a9eff" stroke-miterlimit="10"/>
<path d="M-988.188 261.578C-828.771 217.579 -736.12 242.487 -576.703 198.489C-417.286 154.49 -509.938 129.581 -350.567 85.5951C-191.196 41.6089 -98.4991 66.5044 60.9175 22.5055C220.334 -21.4934 127.683 -46.4016 287.1 -90.4005C446.516 -134.399 539.167 -109.491 698.63 -153.503C858.092 -197.514 765.395 -222.41 924.812 -266.409" stroke="#4a9eff" stroke-miterlimit="10"/>
<path d="M169.778 571.898C329.195 527.9 421.846 552.808 581.263 508.809C740.679 464.81 648.028 439.902 807.399 395.915C966.77 351.929 1059.47 376.825 1218.88 332.826C1378.3 288.827 1285.65 263.919 1445.07 219.92C1604.48 175.921 1697.13 200.829 1856.6 156.818C2016.06 112.806 1923.36 87.9104 2082.78 43.9114" stroke="#4a9eff" stroke-miterlimit="10"/>
<path d="M-417.92 414.117C-258.503 370.118 -165.852 395.027 -6.43555 351.028C152.981 307.029 60.33 282.12 219.701 238.134C379.071 194.148 471.768 219.044 631.185 175.045C790.602 131.046 697.951 106.137 857.367 62.1385C1016.78 18.1396 1109.43 43.0478 1268.9 -0.963728C1428.36 -44.9753 1335.66 -69.8709 1495.08 -113.87" stroke="#4a9eff" stroke-miterlimit="10"/>
<path d="M737.743 729.094C897.16 685.095 989.811 710.003 1149.23 666.004C1308.64 622.005 1215.99 597.097 1375.36 553.111C1534.73 509.125 1627.43 534.02 1786.85 490.021C1946.26 446.022 1853.61 421.114 2013.03 377.115C2172.45 333.116 2265.1 358.024 2424.56 314.013C2584.02 270.001 2491.33 245.106 2650.74 201.107" stroke="#4a9eff" stroke-miterlimit="10"/>
<path d="M-707.956 342.812C-548.539 298.814 -455.888 323.722 -296.472 279.723C-137.055 235.724 -229.706 210.816 -70.3354 166.829C89.0354 122.843 181.732 147.739 341.149 103.74C500.566 59.741 407.914 34.8328 567.331 -9.16616C726.748 -53.1651 819.399 -28.2568 978.861 -72.2684C1138.32 -116.28 1045.63 -141.176 1205.04 -185.174" stroke="#4a9eff" stroke-miterlimit="10"/>
<path d="M447.705 652.609C607.122 608.61 699.773 633.519 859.189 589.52C1018.61 545.521 925.955 520.613 1085.33 476.626C1244.7 432.64 1337.39 457.536 1496.81 413.537C1656.23 369.538 1563.58 344.63 1722.99 300.631C1882.41 256.632 1975.06 281.54 2134.52 237.528C2293.98 193.517 2201.29 168.621 2360.7 124.622" stroke="#4a9eff" stroke-miterlimit="10"/>
<path d="M-137.688 495.344C21.7291 451.345 114.38 476.253 273.797 432.254C433.214 388.255 340.562 363.347 499.933 319.361C659.304 275.374 752.001 300.27 911.418 256.271C1070.83 212.272 978.183 187.364 1137.6 143.365C1297.02 99.3662 1389.67 124.274 1549.13 80.2628C1708.59 36.2513 1615.9 11.3557 1775.31 -32.6432" stroke="#4a9eff" stroke-miterlimit="10"/>
<path d="M1017.97 810.32C1177.39 766.321 1270.04 791.23 1429.46 747.231C1588.88 703.232 1496.22 678.324 1655.6 634.337C1814.97 590.351 1907.66 615.247 2067.08 571.248C2226.5 527.249 2133.85 502.341 2293.26 458.342C2452.68 414.343 2545.33 439.251 2704.79 395.239C2864.25 351.228 2771.56 326.332 2930.97 282.333" stroke="#4a9eff" stroke-miterlimit="10"/>
<path d="M-377.915 429.477C-218.498 385.478 -125.847 410.386 33.5693 366.387C192.986 322.388 100.335 297.48 259.706 253.494C419.076 209.507 511.773 234.403 671.19 190.404C830.607 146.405 737.955 121.497 897.372 77.4979C1056.79 33.499 1149.44 58.4072 1308.9 14.3956C1468.36 -29.6159 1375.67 -54.5115 1535.08 -98.5104" stroke="#4a9eff" stroke-miterlimit="10"/>
<path d="M-1228.42 195.711C-1069 151.712 -976.348 176.62 -816.932 132.621C-657.515 88.6224 -750.166 63.7142 -590.795 19.7279C-431.425 -24.2583 -338.728 0.637259 -179.311 -43.3617C-19.8944 -87.3606 -112.546 -112.269 46.8711 -156.268C206.288 -200.267 298.939 -175.358 458.401 -219.37C617.864 -263.382 525.167 -288.277 684.584 -332.276" stroke="#4a9eff" stroke-miterlimit="10"/>
<path d="M-70.4492 506.031C88.9674 462.032 181.619 486.941 341.035 442.942C500.452 398.943 407.801 374.034 567.171 330.048C726.542 286.062 819.239 310.958 978.656 266.959C1138.07 222.96 1045.42 198.052 1204.84 154.053C1364.25 110.054 1456.91 134.962 1616.37 90.9503C1775.83 46.9388 1683.13 22.0432 1842.55 -21.9557" stroke="#4a9eff" stroke-miterlimit="10"/>
<path d="M-658.147 353.43C-498.731 309.431 -406.08 334.339 -246.663 290.34C-87.2465 246.341 -179.898 221.433 -20.5268 177.447C138.844 133.46 231.541 158.356 390.958 114.357C550.374 70.3582 457.723 45.4499 617.14 1.45103C776.556 -42.5479 869.207 -17.6397 1028.67 -61.6512C1188.13 -105.663 1095.44 -130.558 1254.85 -174.557" stroke="#4a9eff" stroke-miterlimit="10"/>
<path d="M497.515 663.227C656.931 619.228 749.582 644.136 908.999 600.137C1068.42 556.138 975.765 531.23 1135.14 487.244C1294.51 443.257 1387.2 468.153 1546.62 424.154C1706.04 380.155 1613.39 355.247 1772.8 311.248C1932.22 267.249 2024.87 292.157 2184.33 248.146C2343.79 204.134 2251.1 179.238 2410.51 135.24" stroke="#4a9eff" stroke-miterlimit="10"/>
<path d="M-948.184 276.945C-788.767 232.946 -696.116 257.855 -536.699 213.856C-377.283 169.857 -469.934 144.949 -310.563 100.962C-151.192 56.976 -58.4952 81.8716 100.921 37.8727C260.338 -6.1262 167.687 -31.0344 327.104 -75.0333C486.52 -119.032 579.171 -94.124 738.634 -138.136C898.096 -182.147 805.399 -207.043 964.816 -251.042" stroke="#4a9eff" stroke-miterlimit="10"/>
<path d="M209.782 587.266C369.199 543.267 461.85 568.175 621.267 524.176C780.683 480.177 688.032 455.269 847.403 411.283C1006.77 367.296 1099.47 392.192 1258.89 348.193C1418.3 304.194 1325.65 279.286 1485.07 235.287C1644.49 191.288 1737.14 216.196 1896.6 172.185C2056.06 128.173 1963.37 103.278 2122.78 59.2786" stroke="#4a9eff" stroke-miterlimit="10"/>
<path d="M-1119.58 222.289C-960.159 178.29 -867.507 203.198 -708.091 159.199C-548.674 115.201 -641.325 90.2923 -481.955 46.3061C-322.584 2.31979 -229.887 27.2154 -70.4702 -16.7835C88.9465 -60.7824 -3.70473 -85.6907 155.712 -129.69C315.129 -173.689 407.78 -148.78 567.242 -192.792C726.705 -236.803 634.008 -261.699 793.424 -305.698" stroke="#4a9eff" stroke-miterlimit="10"/>
<path d="M38.3916 532.609C197.808 488.61 290.459 513.519 449.876 469.52C609.293 425.521 516.642 400.613 676.012 356.626C835.383 312.64 928.08 337.536 1087.5 293.537C1246.91 249.538 1154.26 224.63 1313.68 180.631C1473.1 136.632 1565.75 161.54 1725.21 117.528C1884.67 73.5169 1791.97 48.6213 1951.39 4.62238" stroke="#4a9eff" stroke-miterlimit="10"/>
<path d="M-549.307 374.82C-389.89 330.821 -297.239 355.73 -137.822 311.731C21.5944 267.732 -71.0567 242.824 88.314 198.837C247.685 154.851 340.382 179.747 499.798 135.748C659.215 91.7488 566.564 66.8406 725.98 22.8417C885.397 -21.1573 978.048 3.75097 1137.51 -40.2606C1296.97 -84.2722 1204.28 -109.168 1363.69 -153.167" stroke="#4a9eff" stroke-miterlimit="10"/>
<path d="M606.355 689.797C765.772 645.798 858.423 670.706 1017.84 626.707C1177.26 582.708 1084.61 557.8 1243.98 513.814C1403.35 469.828 1496.04 494.723 1655.46 450.724C1814.88 406.725 1722.23 381.817 1881.64 337.818C2041.06 293.819 2133.71 318.728 2293.17 274.716C2452.64 230.704 2359.94 205.809 2519.35 161.81" stroke="#4a9eff" stroke-miterlimit="10"/>
<path d="M-839.343 303.516C-679.926 259.517 -587.275 284.425 -427.858 240.426C-268.442 196.427 -361.093 171.519 -201.722 127.533C-42.3514 83.5464 50.3456 108.442 209.762 64.443C369.179 20.4441 276.528 -4.46412 435.944 -48.463C595.361 -92.4619 688.012 -67.5537 847.475 -111.565C1006.94 -155.577 914.24 -180.472 1073.66 -224.471" stroke="#4a9eff" stroke-miterlimit="10"/>
<path d="M316.32 613.312C475.737 569.314 568.388 594.222 727.805 550.223C887.221 506.224 794.57 481.316 953.941 437.329C1113.31 393.343 1206.01 418.239 1365.43 374.24C1524.84 330.241 1432.19 305.333 1591.61 261.334C1751.02 217.335 1843.68 242.243 2003.14 198.232C2162.6 154.22 2069.9 129.324 2229.32 85.3255" stroke="#4a9eff" stroke-miterlimit="10"/>
<path d="M-269.075 456.055C-109.659 412.056 -17.0074 436.964 142.409 392.965C301.826 348.966 209.175 324.058 368.545 280.072C527.916 236.085 620.613 260.981 780.03 216.982C939.446 172.983 846.795 148.075 1006.21 104.076C1165.63 60.0771 1258.28 84.9853 1417.74 40.9738C1577.2 -3.0378 1484.51 -27.9334 1643.92 -71.9323" stroke="#4a9eff" stroke-miterlimit="10"/>
<path d="M886.588 771.031C1046 727.032 1138.66 751.941 1298.07 707.942C1457.49 663.943 1364.84 639.035 1524.21 595.048C1683.58 551.062 1776.28 575.958 1935.69 531.959C2095.11 487.96 2002.46 463.052 2161.87 419.053C2321.29 375.054 2413.94 399.962 2573.41 355.95C2732.87 311.939 2640.17 287.043 2799.59 243.044" stroke="#4a9eff" stroke-miterlimit="10"/>
</g>
<defs>
<clipPath id="clip0_0_28">
<rect width="1920" height="499" fill="white"/>
</clipPath>
</defs>
</svg>
